<svg width="315" height="211" viewBox="0 0 315 211" fill="none" xmlns="http://www.w3.org/2000/svg">
<rect y="-39" width="315" height="250" fill="#F9F9F9"/>
<mask id="mask0" mask-type="alpha" maskUnits="userSpaceOnUse" x="0" y="-39" width="315" height="250">
<rect y="-39" width="315" height="250" fill="#F9F9F9"/>
</mask>
<g mask="url(#mask0)">
<path d="M119.426 65.9202L119.984 66.195C121.252 63.6209 122.884 61.3508 124.837 59.4409C134.602 49.8912 151.765 48.6528 163.907 56.6232C170.575 61.0001 175.832 67.6928 180.921 74.1637C188.182 83.4015 195.69 92.9554 207.224 95.2788C215.427 96.9346 223.68 94.4079 231.658 91.9612C232.808 91.61 233.959 91.2588 235.104 90.9188C242.665 88.6842 253.679 86.3217 261.924 91.5655C270.274 96.8754 272.705 103.24 269.143 110.47C265.918 117.017 257.883 123.872 247.086 129.283C237.244 134.219 227.149 136.798 221.37 135.864C211.98 134.339 204.736 128.232 197.059 121.766C191.111 116.757 184.957 111.576 177.725 108.751C170.488 105.923 162.353 105.51 154.481 105.109C143.289 104.54 132.715 103.997 124.799 97.0442C120.821 93.5542 118.184 88.4374 117.367 82.6524C116.581 77.0568 117.503 71.2175 119.973 66.2034L119.426 65.9202ZM119.426 65.9202C114.343 76.2392 115.739 89.9104 124.398 97.5071C138.243 109.661 160.35 102.624 177.506 109.324C193.661 115.634 204.155 133.69 221.278 136.472C233.493 138.456 262.498 125.367 269.704 110.739C272.993 104.063 271.736 97.0601 262.261 91.0361C254.329 85.9881 243.96 87.6461 234.937 90.315C225.908 92.9811 216.574 96.5193 207.355 94.6616C188.122 90.7848 180.651 66.8608 164.25 56.0966C152.228 48.2062 134.714 48.9034 124.4 58.9895C122.356 61.0005 120.689 63.3572 119.426 65.9202Z" fill="#ECEEEB"/>
<path d="M84.8149 57.5478C87.7013 51.6889 92.5467 47.0175 97.6746 42.068L97.791 41.9585C101.301 38.5625 106.017 34.2935 111.372 31.361C120.11 26.5557 131.188 25.3303 141.774 27.9867C149.954 30.0413 156.978 33.7102 162.654 38.8916C166.443 42.3579 169.829 46.5018 173.101 50.5127C177.503 55.9151 182.065 61.5003 187.632 65.4111C193.405 69.4933 200.148 71.89 208.236 72.7242C213.536 73.2633 218.864 73.0299 224.022 72.8032C227.623 72.6436 231.017 72.4937 234.365 72.5924C237.218 72.6834 239.971 72.9341 242.632 73.1743C244.013 73.2982 245.438 73.4302 246.864 73.5343C247.735 73.5949 248.534 73.6477 249.308 73.6812C251.337 73.7838 253.402 73.8275 255.586 73.8676C265.566 74.0692 276.885 74.2974 284.404 80.9154C289.374 85.2905 291.982 90.7476 292.154 97.1394C292.251 100.713 291.507 104.206 290.01 107.245C289.52 108.241 288.94 109.207 288.29 110.104C285.616 113.815 281.687 116.726 277.529 119.803C276.675 120.439 275.805 121.081 274.931 121.743C272 123.963 269.065 126.46 266.218 128.876C262.978 131.626 259.627 134.474 256.16 137.036C242.585 147.059 225.423 150.545 214.425 145.516C211.533 144.196 208.791 142.768 205.89 141.256C204.637 140.604 203.379 139.949 202.099 139.298C198.81 137.629 195.484 136.276 192.27 134.963C191.138 134.503 189.961 134.021 188.824 133.544C185.723 132.253 182.578 130.842 179.539 129.484C171.884 126.054 163.967 122.508 155.274 120.117C152.198 119.269 148.992 118.476 145.896 117.709C138.706 115.926 131.27 114.092 124.93 111.455C120.678 109.687 116.962 107.676 113.023 105.54C112.443 105.227 111.863 104.913 111.282 104.599L111.015 104.454C103.351 100.324 95.423 96.0562 89.3708 88.9091C82.4848 80.7671 80.2656 69.048 83.8512 59.7434C84.1288 59.011 84.4593 58.2697 84.8149 57.5478ZM84.2571 57.273C83.896 58.0061 83.5683 58.7557 83.2658 59.5246C79.5646 69.1199 81.9466 81.1139 88.8857 89.3169C95.0862 96.6413 103.304 101.024 110.976 105.151C115.495 107.586 119.767 109.989 124.68 112.034C133.799 115.824 144.865 117.903 155.093 120.724C167.236 124.063 177.755 129.628 188.571 134.128C192.875 135.943 197.363 137.612 201.807 139.863C205.999 141.991 209.977 144.173 214.157 146.087C225.597 151.319 243.054 147.485 256.521 137.541C263.083 132.693 269.084 126.956 275.301 122.245C280.475 118.326 285.505 115.025 288.787 110.474C289.467 109.529 290.058 108.541 290.56 107.523C292.164 104.266 292.857 100.692 292.763 97.1267C292.612 91.4958 290.519 85.4858 284.799 80.4497C275.506 72.2692 261.02 73.6446 249.33 73.0593C248.506 73.0151 247.699 72.9651 246.9 72.9123C242.733 72.6048 238.729 72.1066 234.373 71.9706C226.071 71.7263 217.142 73.0088 208.283 72.1077C200.738 71.3254 193.974 69.1407 187.977 64.9068C178.371 58.1644 172.017 46.6199 163.058 38.437C156.703 32.636 149.232 29.2268 141.911 27.3862C131.753 24.83 120.498 25.6273 111.058 30.8168C106.15 33.5035 101.713 37.2909 97.3465 41.51C92.1327 46.5493 87.2124 51.2741 84.2571 57.273Z" fill="#ECEEEB"/>
<path d="M48.9783 45.4008L49.5362 45.6757C49.7981 45.144 50.0794 44.6151 50.3749 44.1139C53.5003 38.7968 58.1966 34.9908 63.1674 30.9654C65.6709 28.9372 68.2574 26.8387 70.7231 24.479C72.5627 22.7149 74.3214 20.9179 76.0192 19.1743C79.1959 15.9201 82.1982 12.8511 85.4779 10.2179C94.5991 2.87549 106.7 -1.00317 119.558 -0.705141C130.823 -0.440282 140.837 2.85865 148.512 8.837C154.125 13.2158 158.86 18.97 163.43 24.5384C168.91 31.2017 174.579 38.0978 181.777 42.6242C188.969 47.1757 197.674 49.5723 209.18 50.1784C213.422 50.3905 217.707 50.3319 221.859 50.277C229.33 50.1815 236.387 50.0835 243.06 51.438C246.623 52.1708 249.97 53.2843 253.209 54.3651C254.99 54.9573 256.823 55.5687 258.69 56.1129C259.777 56.4258 260.788 56.6945 261.78 56.9328C266.037 57.945 270.567 58.5147 275.362 59.1243C287.017 60.5964 299.076 62.1214 306.892 70.3041C314.151 77.8997 314.839 87.1401 314.14 93.555C313.702 97.5953 312.648 101.325 311.016 104.638C309.933 106.837 308.595 108.835 307.034 110.583C303.535 114.506 298.953 117.304 294.106 120.264C291.924 121.595 289.674 122.969 287.466 124.482C281.86 128.334 276.718 133.2 271.747 137.914C268.885 140.628 265.924 143.432 262.894 146.021C254.751 152.983 244.805 157.791 234.884 159.552C224.516 161.392 215.003 159.876 207.36 155.172C205.869 154.257 204.376 153.278 202.936 152.332C199.729 150.23 196.416 148.063 192.801 146.31C187.644 143.804 182.277 142.711 177.093 141.652L175.751 141.38C168.634 139.912 161.672 138.241 154.309 136.471C147.4 134.806 140.26 133.089 132.82 131.517C119.837 128.772 105.149 124.999 94.5943 117.804C90.6583 115.128 87.4082 112.156 83.9597 109.011C82.5149 107.694 81.0226 106.333 79.486 105.006C77.4828 103.275 75.4409 101.609 73.2761 99.8397C66.4045 94.2292 59.2929 88.4308 53.8756 80.769C46.251 69.9892 44.505 55.8883 49.5306 45.6868L48.9783 45.4008ZM48.9783 45.4008C43.6439 56.2291 46.0375 70.7463 53.3763 81.1211C60.5274 91.2296 70.594 98.1359 79.0846 105.469C84.1528 109.843 88.5652 114.437 94.2488 118.308C104.798 125.501 119.158 129.251 132.692 132.115C147.884 135.329 161.676 139.106 175.628 141.98C181.166 143.123 187.003 144.177 192.536 146.861C197.744 149.391 202.276 152.757 207.039 155.695C223.2 165.653 246.675 160.708 263.302 146.487C271.607 139.382 279.042 131.014 287.819 124.99C294.879 120.144 302.332 116.778 307.5 110.986C309.156 109.132 310.507 107.078 311.58 104.901C313.325 101.359 314.345 97.4875 314.766 93.6063C315.628 85.6512 314.066 76.8911 307.349 69.8547C296.195 58.1774 276.731 59.8199 261.933 56.3127C260.891 56.0637 259.874 55.7922 258.874 55.501C253.633 53.9689 248.756 51.9631 243.194 50.8153C232.632 48.6718 220.876 50.1195 209.225 49.5396C199.369 49.0304 190.205 47.2003 182.125 42.0864C169.031 33.8551 161.327 18.0154 148.907 8.32951C140.088 1.45324 129.471 -1.11365 119.588 -1.34383C107.451 -1.62752 94.942 1.79962 85.1083 9.71592C80.0015 13.8065 75.512 19.0218 70.3091 24.0108C62.9813 31.0197 54.635 35.6493 49.853 43.7803C49.5355 44.3262 49.2457 44.858 48.9783 45.4008Z" fill="#ECEEEB"/>
<path d="M13.7888 32.3905L14.3466 32.6653C15.0826 31.1712 15.9471 29.7542 16.9178 28.4452C20.7646 23.2679 26.019 19.7925 31.5785 16.1058C35.6649 13.3971 39.8956 10.5925 43.6774 6.99663C47.1156 3.71824 50.0794 0.150504 52.938 -3.30216C55.1739 -5.99758 57.2881 -8.54435 59.5812 -10.9195C69.2852 -21.0208 82.6842 -27.5909 97.3213 -29.4274C111.241 -31.1723 124.4 -28.264 134.375 -21.2427C141.748 -16.0456 147.751 -8.76992 153.558 -1.72983C160.182 6.29695 167.03 14.601 175.936 19.8233C186.93 26.3103 199.396 27.403 210.133 27.6159C213.754 27.6819 217.432 27.6304 220.986 27.5798C231.941 27.4203 242.286 27.2735 251.809 30.2749C256.111 31.6436 260.089 33.6169 263.935 35.5187C266.085 36.585 268.314 37.6898 270.578 38.6801C271.886 39.2478 273.107 39.7382 274.308 40.1701C280.31 42.3268 287.152 43.5769 293.77 44.7785C307.096 47.2061 320.869 49.7141 329.408 59.6927C337.818 69.5106 337.71 81.5922 336.149 89.9956C335.337 94.3313 334.042 98.3387 332.286 101.903C330.546 105.434 328.359 108.523 325.783 111.078C321.315 115.518 315.747 118.477 309.851 121.623C306.598 123.358 303.228 125.147 300.004 127.231C292.144 132.309 285.364 139.233 278.811 145.921C275.844 148.945 272.784 152.076 269.656 154.992C259.85 164.146 247.629 170.295 235.236 172.305C222.105 174.432 210.022 171.845 200.286 164.816C198.803 163.745 197.312 162.593 195.871 161.48C192.045 158.524 188.09 155.463 183.522 153.31C177.052 150.262 170.171 149.765 163.518 149.283L162.722 149.225C145.341 148.019 128.218 145.954 110.394 142.903C89.8912 139.395 74.3566 133.077 64.2249 124.122C59.9834 120.377 56.4877 116.062 53.1013 111.89C51.3605 109.739 49.5553 107.521 47.6531 105.374C44.5117 101.831 41.1598 98.4894 37.6121 94.9545C30.7796 88.1532 23.715 81.1193 18.3884 72.5981C10.4545 59.9134 8.83018 43.8629 14.3466 32.6653L13.7888 32.3905ZM13.7888 32.3905C7.80646 44.5338 10.303 60.8541 17.8612 72.9364C25.9353 85.8431 37.8668 95.2677 47.1904 105.793C52.7991 112.123 57.3607 118.891 63.8124 124.593C75.7939 135.183 93.4311 140.638 110.286 143.517C128.513 146.635 145.572 148.662 162.678 149.849C169.447 150.347 176.634 150.758 183.258 153.875C189.485 156.811 194.516 161.417 199.921 165.318C220.607 180.259 250.278 173.937 270.075 155.449C280.111 146.082 288.987 135.086 300.335 127.755C309.274 121.978 319.148 118.539 326.217 111.521C328.97 108.789 331.148 105.606 332.838 102.175C334.716 98.3646 335.988 94.2486 336.759 90.1083C338.67 79.84 337.607 68.3076 329.885 59.2878C316.883 44.0996 292.434 46.026 274.525 39.5886C273.266 39.1348 272.033 38.639 270.834 38.1179C264.524 35.3639 258.773 31.842 252.006 29.6907C239.184 25.648 224.605 27.2694 210.15 27.0052C197.985 26.7635 186.425 25.2963 176.251 19.2968C159.677 9.57381 150.612 -10.5525 134.732 -21.7415C123.444 -29.6874 109.683 -31.5988 97.2405 -30.0374C83.1235 -28.2716 69.3558 -21.9943 59.1313 -11.3429C53.825 -5.84849 49.281 0.800289 43.244 6.55364C34.4476 14.9253 23.2294 18.9259 16.418 28.0807C15.4086 29.4402 14.5331 30.8796 13.7888 32.3905Z" fill="#ECEEEB"/>
<path d="M-20.8834 19.3289C-19.7035 16.9339 -18.2389 14.7208 -16.5366 12.7569C-11.8864 7.39822 -5.83024 3.99788 0.57563 0.394282C6.08504 -2.69823 11.7804 -5.90082 16.6178 -10.4857C21.192 -14.8317 24.7834 -19.8705 28.2504 -24.7411C30.0724 -27.2997 31.7893 -29.7154 33.654 -32.0513C44.0371 -45.1211 58.7315 -54.3911 75.046 -58.155C91.391 -61.9248 107.854 -59.4333 120.225 -51.3223C129.341 -45.3431 136.594 -36.5681 143.607 -28.0785C151.395 -18.6576 159.452 -8.9097 170.079 -2.97206C182.748 4.13867 197.267 5.08835 211.075 5.06173C214.247 5.0529 217.472 4.97955 220.589 4.91537C234.882 4.60644 248.385 4.31157 260.582 9.11713C265.639 11.1217 270.244 13.9465 274.7 16.6775C277.218 18.2235 279.827 19.8219 282.494 21.2609C284.023 22.0836 285.451 22.7871 286.859 23.4183C294.435 26.796 303.215 28.7014 311.711 30.5503C326.864 33.843 342.536 37.2518 351.932 49.0924C362.026 61.8117 360.161 77.9654 358.147 86.4584C357.066 91.0164 355.572 95.2455 353.702 99.0396C351.257 104.003 348.166 108.224 344.508 111.582C339.035 116.612 332.388 119.819 325.35 123.215C321.088 125.267 316.684 127.395 312.522 129.976C302.502 136.188 294.229 145.088 286.224 153.697C283.042 157.115 279.756 160.649 276.412 163.96C264.941 175.312 250.414 182.822 235.509 185.103C219.584 187.543 204.943 183.856 193.182 174.453C191.545 173.146 189.919 171.733 188.343 170.372C184.043 166.648 179.595 162.787 174.233 160.319C166.463 156.742 158.074 156.914 149.958 157.081L149.705 157.088C131.744 157.51 110.367 157.507 87.9595 154.306C71.433 151.943 48.6227 145.886 33.8166 130.449C29.1665 125.606 25.4814 120.042 21.9169 114.656C19.9692 111.715 17.9488 108.668 15.7842 105.745C11.8107 100.387 7.19509 95.1923 2.72501 90.1668C-4.34938 82.2101 -11.6699 73.9792 -17.1237 64.4357C-21.0541 57.5689 -23.6432 49.5132 -24.411 41.7566C-25.2287 33.44 -24.0152 25.686 -20.8834 19.3289ZM-21.444 19.0597C-28.1375 32.6468 -25.5568 50.921 -17.6539 64.7378C-8.66798 80.4512 5.12847 92.3939 15.2961 106.103C21.4342 114.384 26.1506 123.328 33.3761 130.865C46.7897 144.851 67.7101 152.028 87.876 154.911C109.15 157.951 129.476 158.173 149.721 157.702C157.718 157.538 166.26 157.324 173.979 160.876C181.221 164.214 186.733 170.08 192.8 174.932C217.873 194.983 253.865 187.144 276.854 164.401C288.618 152.762 298.943 139.135 312.856 130.509C323.675 123.802 335.966 120.281 344.93 112.048C348.859 108.434 351.925 104.068 354.263 99.3227C356.256 95.2768 357.725 90.9587 358.754 86.6047C361.729 74.0369 361.159 59.7157 352.42 48.7069C337.58 30.0049 308.132 32.2153 287.118 22.8504C285.634 22.1891 284.198 21.4745 282.797 20.7151C275.413 16.7365 268.789 11.7069 260.821 8.54664C245.734 2.60198 228.333 4.39138 211.086 4.44827C196.61 4.47968 182.647 3.37267 170.391 -3.50681C150.328 -14.7187 139.913 -39.1402 120.573 -51.8322C106.824 -60.845 89.8704 -62.201 74.9097 -58.7507C58.7592 -55.0242 43.7918 -45.8052 33.1681 -32.4298C27.668 -25.5288 23.0665 -17.4549 16.1928 -10.9315C5.91948 -1.19426 -8.16784 2.17172 -17.0032 12.3532C-18.7913 14.4069 -20.2613 16.6591 -21.444 19.0597Z" fill="#ECEEEB"/>
<path d="M-56.1474 5.85073C-54.5291 2.56588 -52.4558 -0.390449 -49.9854 -2.94256C-44.4934 -8.60279 -37.5496 -12.0179 -30.1893 -15.6311C-23.3288 -19.0038 -16.235 -22.4841 -10.4362 -27.9653C-4.8922 -33.2104 -0.900788 -39.6099 2.96638 -45.7993C4.49945 -48.2499 6.07945 -50.7817 7.71023 -53.1633C18.7774 -69.3384 34.7756 -81.3111 52.7541 -86.8769C61.5961 -89.6142 70.983 -90.6574 79.8857 -89.8876C89.554 -89.0537 98.3662 -86.2006 106.074 -81.4019C116.925 -74.6517 125.415 -64.3911 133.629 -54.4687C142.595 -43.6399 151.863 -32.4397 164.23 -25.7701C179.314 -17.6089 196.81 -17.216 212.022 -17.4897C214.822 -17.5432 217.671 -17.6278 220.423 -17.7116C237.99 -18.2364 254.579 -18.7291 269.375 -12.038C275.186 -9.39754 280.432 -5.72142 285.502 -2.16675C288.386 -0.140982 291.37 1.94818 294.435 3.83324C296.184 4.91083 297.819 5.82753 299.431 6.6496C308.502 11.2713 319.15 13.8463 329.449 16.3402C346.513 20.4696 364.153 24.737 374.468 38.4836C385.822 53.6111 382.903 72.8198 380.153 82.9185C378.867 87.6536 377.212 92.0818 375.244 96.0773C372.057 102.546 368.016 107.934 363.244 112.092C356.764 117.731 349.021 121.191 340.829 124.861C335.564 127.218 330.127 129.658 325.057 132.716C312.852 140.042 303.088 150.955 293.645 161.511C290.251 165.305 286.746 169.225 283.185 172.909C270.002 186.456 253.155 195.326 235.738 197.894C226.775 199.215 218.066 198.784 209.842 196.624C201.096 194.325 193.098 190.1 186.08 184.07C184.259 182.505 182.459 180.811 180.717 179.168C175.974 174.696 171.069 170.075 164.96 167.309C155.925 163.219 145.722 164.132 136.718 164.933C114.312 166.975 90.3637 168.717 65.5444 165.683C49.9383 163.774 21.119 157.476 3.40819 136.734C-1.68123 130.771 -5.58645 123.937 -9.3626 117.334C-11.4864 113.611 -13.6886 109.765 -16.0877 106.08C-20.7541 98.9199 -26.3569 92.0707 -31.7777 85.4433C-39.2304 76.3267 -46.9404 66.9025 -52.6276 56.2566C-61.5767 39.4696 -62.9594 19.6923 -56.1474 5.85073ZM-56.7052 5.57592C-64.1459 20.6795 -61.4806 40.9772 -53.1661 56.5476C-43.274 75.0649 -27.6125 89.5258 -16.5981 106.426C-9.93062 116.658 -5.0566 127.787 2.94258 137.145C17.7827 154.525 41.9864 163.438 65.4721 166.308C89.7819 169.279 113.383 167.693 136.776 165.559C146.006 164.738 155.891 163.892 164.706 167.879C172.969 171.623 178.935 178.748 185.679 184.547C215.051 209.774 257.402 200.298 283.632 173.352C297.097 159.415 308.877 143.16 325.38 133.258C338.064 125.591 352.788 122.017 363.655 112.566C368.821 108.073 372.794 102.471 375.804 96.3605C377.894 92.1187 379.518 87.6266 380.755 83.0899C384.801 68.2198 384.717 51.1126 374.967 38.1176C358.29 15.8962 323.846 18.399 299.721 6.10382C298.02 5.23779 296.376 4.29607 294.769 3.30947C286.313 -1.89934 278.817 -8.4366 269.639 -12.6031C252.292 -20.4469 232.07 -18.4895 212.017 -18.1113C195.23 -17.8068 178.872 -18.5565 164.528 -26.3188C140.977 -39.0196 129.212 -67.7362 106.406 -81.934C90.1915 -92.022 69.9988 -92.8668 52.5704 -87.475C34.3363 -81.8265 18.2195 -69.6272 7.19935 -53.5193C1.49981 -45.2145 -3.15621 -35.7071 -10.8613 -28.425C-22.6031 -17.325 -39.5623 -14.588 -50.4271 -3.38271C-53.0221 -0.704231 -55.098 2.31346 -56.7052 5.57592Z" fill="#ECEEEB"/>
<path d="M-91.4285 -7.7194C-89.3802 -11.8772 -86.6869 -15.5573 -83.4287 -18.6532C-77.0786 -24.6765 -68.8223 -28.3073 -60.8354 -31.8135C-52.6597 -35.4075 -44.2007 -39.1262 -37.4874 -45.4504C-31.0651 -51.5076 -26.7597 -59.2198 -22.6007 -66.6771C-21.1932 -69.1965 -19.7415 -71.8054 -18.2392 -74.2781C-6.50497 -93.6365 10.783 -108.312 30.4426 -115.601C51.5274 -123.42 74.5116 -121.881 91.9128 -111.487C104.492 -103.969 114.217 -92.2307 123.619 -80.881C133.766 -68.636 144.254 -55.9724 158.361 -48.5709C175.235 -39.6948 194.579 -39.4908 212.95 -40.0436C215.421 -40.1199 217.936 -40.2161 220.365 -40.306C240.25 -41.0454 260.808 -41.8147 278.159 -33.1902C284.728 -29.9195 290.612 -25.3864 296.295 -21.0081C299.54 -18.5054 302.903 -15.9171 306.367 -13.5776C308.335 -12.2534 310.177 -11.1096 311.999 -10.0939C322.528 -4.21127 334.996 -0.969009 347.059 2.16464C366.952 7.33319 385.747 12.2113 396.99 27.9028C409.615 45.4163 405.642 67.6938 402.145 79.4066C400.687 84.2935 398.908 88.8899 396.852 93.0645C392.898 101.089 387.889 107.669 381.96 112.613C374.437 118.893 365.555 122.653 356.154 126.624C349.938 129.251 343.509 131.973 337.576 135.476C323.294 143.865 312.131 156.703 301.33 169.115C297.638 173.36 293.821 177.745 289.947 181.88C275.315 197.412 255.637 207.933 235.959 210.742C225.67 212.21 215.666 211.607 206.237 208.951C196.175 206.115 187.002 200.984 178.968 193.709C176.945 191.878 174.96 189.885 173.042 187.952C167.872 182.756 162.518 177.386 155.673 174.326C145.4 169.738 133.887 171.368 123.723 172.807C96.5394 176.697 69.9153 179.944 43.121 177.091C29.1309 175.603 15.6319 172.019 4.08412 166.727C-8.91101 160.77 -19.3776 152.804 -27.0196 143.045C-32.5958 135.93 -36.7409 127.783 -40.7566 119.907C-43.0313 115.449 -45.3762 110.837 -47.9679 106.431C-53.249 97.5221 -59.7441 89.0651 -66.0264 80.8936C-73.9521 70.5844 -82.1466 59.9202 -88.1342 48.0831C-97.596 29.3397 -98.8912 7.44287 -91.4285 -7.7194ZM-91.9864 -7.99421C-100.191 8.65944 -97.4463 31.0198 -88.6756 48.3518C-77.8883 69.6814 -60.3813 86.6719 -48.4924 106.736C-41.3149 118.93 -36.2611 132.226 -27.4938 143.416C-11.2243 164.199 16.2628 174.847 43.071 177.7C70.4248 180.612 97.3014 177.204 123.828 173.409C134.29 171.929 145.526 170.454 155.436 174.877C164.713 179.023 171.13 187.414 178.569 194.153C212.17 224.6 261.008 213.507 290.416 182.292C305.607 166.09 318.835 147.203 337.901 135.998C352.467 127.395 369.603 123.737 382.371 113.073C388.802 107.701 393.718 100.832 397.421 93.3169C399.598 88.8961 401.358 84.2552 402.753 79.5668C407.874 62.4027 408.297 42.4926 397.505 27.5171C379.04 1.75104 339.546 4.56896 312.316 -10.6538C310.397 -11.7246 308.543 -12.8879 306.726 -14.11C297.202 -20.5406 288.827 -28.5883 278.446 -33.7582C258.836 -43.5096 235.79 -41.3786 212.939 -40.682C193.844 -40.11 175.084 -40.4995 158.656 -49.1418C131.617 -63.3315 118.502 -96.3433 92.2331 -112.038C73.551 -123.196 50.0881 -123.566 30.2256 -116.202C9.87144 -108.656 -7.36117 -93.4463 -18.775 -74.6116C-24.6656 -64.9058 -29.3818 -53.9677 -37.9181 -45.9129C-51.1341 -33.4528 -70.9569 -31.3477 -83.8538 -19.113C-87.2782 -15.8486 -89.9656 -12.0961 -91.9864 -7.99421Z" fill="#ECEEEB"/>
<path d="M-127.293 -21.5977L-126.735 -21.3229C-124.251 -26.3649 -120.932 -30.7521 -116.866 -34.3612C-109.644 -40.7755 -100.378 -44.486 -91.415 -48.0745C-81.9351 -51.8674 -72.133 -55.7938 -64.5469 -62.9328C-57.2933 -69.7627 -52.7323 -78.7536 -48.323 -87.4507C-46.9939 -90.0782 -45.6151 -92.7926 -44.1912 -95.3874C-31.8208 -117.979 -13.2347 -135.36 8.13408 -144.332C19.2851 -149.012 31.4767 -151.316 43.3884 -150.983C55.8399 -150.635 67.7233 -147.389 77.7625 -141.581C92.068 -133.302 103.024 -120.096 113.621 -107.316C124.949 -93.6544 136.663 -79.5248 152.512 -71.383C171.184 -61.781 192.202 -61.7534 213.898 -62.609C216.068 -62.6942 218.235 -62.7879 220.405 -62.8871C243.361 -63.8939 267.096 -64.9342 286.969 -54.351C294.297 -50.4417 300.817 -45.0601 307.119 -39.8553C310.731 -36.8729 314.466 -33.7882 318.327 -31.0027C320.516 -29.4236 322.565 -28.0666 324.588 -26.8543C336.548 -19.6967 350.817 -15.7898 364.617 -12.0162C386.57 -6.00656 407.305 -0.325474 419.534 17.2912C424.996 25.1423 428.021 34.6643 428.536 45.5927C428.981 55.0607 427.468 65.5325 424.157 75.8694C422.575 80.8687 420.685 85.6053 418.548 89.9422C413.818 99.5449 407.807 107.342 400.696 113.108C392.121 120.031 381.627 124.278 371.478 128.374C364.312 131.269 356.905 134.261 350.111 138.202C333.77 147.648 321.215 162.395 309.079 176.66C305.077 181.364 300.937 186.223 296.734 190.815C287.702 200.649 276.67 208.9 264.84 214.678C252.846 220.536 239.966 223.871 227.574 224.33C206.52 225.106 187.261 217.836 171.869 203.307C169.641 201.201 167.466 198.905 165.36 196.679C159.762 190.763 153.979 184.646 146.405 181.304C134.9 176.221 121.518 178.675 110.761 180.643C83.2158 185.703 51.9894 191.439 20.7171 188.46C-13.0185 185.332 -41.5019 171.063 -57.4309 149.308C-63.4547 141.076 -67.831 131.667 -72.0667 122.563C-74.5036 117.322 -77.0248 111.901 -79.8398 106.738C-85.6913 96.0458 -93.0677 85.9864 -100.2 76.2625C-108.624 64.783 -117.336 52.9041 -123.627 39.8675C-128.353 30.1264 -131.235 19.4156 -131.96 8.89857C-132.733 -2.36538 -130.928 -12.8253 -126.732 -21.3424L-127.284 -21.6145L-127.293 -21.5977ZM-127.293 -21.5977C-136.274 -3.36597 -133.459 21.0738 -124.188 40.1615C-112.533 64.3176 -93.1168 83.7925 -80.3838 107.054C-72.6685 121.196 -67.4627 136.674 -57.93 149.688C-40.2283 173.867 -9.46052 186.299 20.6616 189.094C51.0514 191.993 81.203 186.721 110.875 181.269C122.564 179.128 135.154 177.027 146.16 181.886C156.452 186.435 163.315 196.088 171.451 203.775C209.242 239.465 264.606 226.733 297.198 191.252C314.12 172.787 328.791 151.267 350.425 138.76C366.877 129.229 386.408 125.465 401.093 113.61C408.823 107.348 414.709 99.1844 419.117 90.2364C421.367 85.6701 423.232 80.9002 424.756 76.0742C430.983 56.6244 431.855 33.9174 420.053 16.9557C399.739 -12.3213 355.261 -9.21951 324.92 -27.3725C322.782 -28.648 320.714 -30.0356 318.701 -31.4933C308.102 -39.1486 298.858 -48.7096 287.273 -54.8829C265.402 -66.5335 239.531 -64.2372 213.884 -63.2139C192.478 -62.3688 171.323 -62.4009 152.804 -71.9204C122.277 -87.599 107.818 -124.903 78.0829 -142.104C56.9415 -154.334 30.1776 -154.237 7.90329 -144.89C-14.5987 -135.447 -32.9166 -117.232 -44.7296 -95.6735C-50.8197 -84.5638 -55.596 -72.195 -64.9608 -63.3731C-79.6509 -49.553 -102.34 -48.0742 -117.266 -34.8156C-121.551 -31.0292 -124.856 -26.5446 -127.293 -21.5977Z" fill="#ECEEEB"/>
<path d="M-162.591 -35.2599L-162.033 -34.9851C-159.125 -40.8889 -155.174 -45.9665 -150.299 -50.0805C-142.196 -56.9026 -131.898 -60.7098 -121.942 -64.3862C-111.18 -68.3613 -100.046 -72.4728 -91.5925 -80.4154C-85.1535 -86.4644 -80.8816 -94.193 -77.5513 -100.953C-76.3769 -103.337 -75.2334 -105.785 -74.1258 -108.16C-73.0264 -110.518 -71.8884 -112.955 -70.7305 -115.305C-70.5348 -115.702 -70.3391 -116.099 -70.1405 -116.488C-57.148 -142.341 -37.2749 -162.432 -14.1801 -173.051C11.4056 -184.813 41.2084 -184.283 63.6066 -171.663C79.6408 -162.63 91.8221 -147.944 103.606 -133.745C116.12 -118.665 129.057 -103.063 146.657 -94.1841C169.041 -82.8857 195.195 -84.1803 220.493 -85.4381C246.506 -86.7261 273.4 -88.0595 295.784 -75.4953C303.875 -70.953 311.028 -64.7172 317.957 -58.6889C324.014 -53.4099 330.281 -47.9512 337.192 -43.6012C350.568 -35.1684 366.624 -30.5968 382.141 -26.172C406.168 -19.3212 428.866 -12.8541 442.086 6.70436C448.02 15.4833 451.217 26.161 451.594 38.426C451.916 49.0575 450.047 60.7865 446.177 72.357C444.456 77.4966 442.467 82.379 440.262 86.8558C434.729 98.0869 427.725 107.098 419.44 113.629C409.813 121.223 398.1 125.779 386.778 130.188C378.675 133.338 370.297 136.596 362.657 140.961C344.259 151.459 330.336 168.112 316.864 184.215C312.544 189.382 308.075 194.725 303.529 199.774C293.618 210.788 281.447 220.029 268.334 226.497C255.03 233.058 240.721 236.774 226.946 237.241C203.38 238.037 181.881 229.629 164.776 212.934C162.338 210.551 159.969 207.945 157.681 205.427C151.665 198.798 145.442 191.942 137.149 188.316C125.379 183.164 112.369 185.357 97.8103 188.512C67.0947 195.167 32.2814 202.711 -1.67557 199.862C-18.9993 198.414 -35.7581 193.948 -50.1438 186.958C-66.1221 179.191 -78.8101 168.643 -87.8503 155.615C-94.3356 146.266 -98.946 135.587 -103.402 125.255C-106.001 119.232 -108.682 113.009 -111.72 107.089C-118.131 94.5917 -126.38 82.913 -134.355 71.6199C-143.276 58.9841 -152.506 45.9184 -159.133 31.7077C-164.122 21.0232 -167.129 9.34038 -167.833 -2.0774C-168.597 -14.3591 -166.59 -25.735 -162.033 -34.9851L-162.591 -35.2599ZM-162.591 -35.2599C-172.356 -15.439 -169.442 11.094 -159.697 31.9654C-147.122 58.9114 -125.844 80.9101 -112.272 107.366C-104.025 123.453 -98.6616 141.116 -88.3607 155.961C-69.227 183.538 -35.1759 197.677 -1.7395 200.485C31.697 203.292 65.1155 196.23 97.9328 189.121C110.854 186.321 124.794 183.592 136.89 188.884C148.205 193.832 155.497 204.754 164.333 213.384C206.28 254.327 268.204 239.945 303.973 200.194C322.627 179.468 338.747 155.316 362.943 141.505C381.275 131.044 403.229 127.201 419.807 114.122C428.845 106.99 435.686 97.5224 440.803 87.1363C443.127 82.4188 445.091 77.5172 446.752 72.5564C454.022 50.8044 455.399 25.3141 442.588 6.36057C420.433 -26.4246 370.958 -23.0443 337.512 -44.1248C322.743 -53.4314 311.307 -67.4934 296.085 -76.0356C251.825 -100.886 192.25 -71.8692 146.938 -94.741C112.926 -111.914 97.1141 -153.508 63.9158 -172.206C40.3067 -185.506 10.2362 -184.958 -14.4359 -173.615C-39.1052 -162.277 -58.4889 -141.054 -70.6983 -116.763C-70.8996 -116.369 -71.0954 -115.971 -71.2911 -115.574C-73.6179 -110.851 -75.7741 -105.968 -78.1119 -101.222C-81.8088 -93.7179 -85.9692 -86.5533 -92.0204 -80.8696C-108.179 -65.6867 -133.746 -64.8396 -150.701 -50.5571C-155.835 -46.2294 -159.749 -41.0294 -162.591 -35.2599Z" fill="#ECEEEB"/>
</g>
</svg>
