<svg width="24" height="24" viewBox="0 0 24 24" fill="none" xmlns="http://www.w3.org/2000/svg">
<path d="M11.6871 14.5043C10.3039 14.5043 9.18271 13.3831 9.18271 12C9.18271 10.6169 10.3039 9.49565 11.6871 9.49565C13.0702 9.49565 14.1914 10.6169 14.1914 12C14.1914 13.3831 13.0702 14.5043 11.6871 14.5043Z" fill="#B0BCAB"/>
<path d="M0.501474 14.2957L0.525995 14.2758L2.17261 12.9845C2.27688 12.902 2.3601 12.796 2.41542 12.6751C2.47075 12.5542 2.4966 12.4219 2.49087 12.289V11.6859C2.49609 11.5539 2.46992 11.4226 2.4145 11.3027C2.35908 11.1828 2.276 11.0777 2.17208 10.9962L0.525995 9.70435L0.501474 9.68452C0.24761 9.47304 0.0772495 9.17816 0.0208549 8.85259C-0.0355415 8.52703 0.0257072 8.19202 0.193647 7.90748L2.422 4.05183C2.42456 4.04819 2.42683 4.04435 2.42878 4.04035C2.59763 3.75974 2.85942 3.54712 3.16869 3.43942C3.47797 3.33173 3.8152 3.33574 4.12182 3.45078L4.14008 3.45757L6.07574 4.23652C6.19791 4.28592 6.33007 4.30558 6.46133 4.29387C6.59259 4.28217 6.71919 4.23945 6.83069 4.16922C7.00182 4.06139 7.17574 3.95948 7.35243 3.86348C7.467 3.80135 7.56536 3.71318 7.63958 3.60605C7.7138 3.49893 7.76181 3.37587 7.77974 3.24678L8.07139 1.18122L8.07765 1.14365C8.14114 0.82372 8.31282 0.535394 8.56385 0.327127C8.81487 0.11886 9.12993 0.003347 9.45608 0H13.918C14.2487 0.00105836 14.5685 0.118809 14.821 0.332506C15.0734 0.546204 15.2423 0.842138 15.298 1.16817L15.3027 1.19739L15.5933 3.26713C15.6111 3.39584 15.6588 3.51862 15.7324 3.62568C15.806 3.73275 15.9037 3.82114 16.0175 3.88383C16.1947 3.97927 16.3687 4.08054 16.5392 4.18748C16.6505 4.25728 16.7768 4.29968 16.9077 4.3112C17.0386 4.32272 17.1703 4.30302 17.2921 4.25374L19.2293 3.47113L19.2476 3.46383C19.5546 3.34866 19.8923 3.34479 20.202 3.45289C20.5116 3.561 20.7735 3.77422 20.9422 4.05548L20.949 4.06696L23.1804 7.92522C23.3486 8.21005 23.41 8.54543 23.3536 8.87138C23.2972 9.19732 23.1267 9.49258 22.8726 9.70435L22.8481 9.72417L21.2015 11.0155C21.0972 11.098 21.014 11.204 20.9587 11.3249C20.9033 11.4458 20.8775 11.5781 20.8832 11.711V12.3141C20.878 12.4461 20.9042 12.5774 20.9596 12.6973C21.015 12.8172 21.0981 12.9223 21.202 13.0038L22.8481 14.2957L22.8726 14.3155C23.1265 14.527 23.2968 14.8218 23.3532 15.1474C23.4096 15.473 23.3484 15.808 23.1804 16.0925L20.9521 19.9482C20.9495 19.9518 20.9473 19.9557 20.9453 19.9597C20.7765 20.2403 20.5147 20.4529 20.2054 20.5606C19.8961 20.6683 19.5589 20.6643 19.2523 20.5492L19.234 20.5424L17.2999 19.7635C17.1777 19.7141 17.0456 19.6944 16.9143 19.7061C16.7831 19.7178 16.6565 19.7606 16.545 19.8308C16.3738 19.939 16.1999 20.0409 16.0232 20.1365C15.9087 20.1986 15.8103 20.2868 15.7361 20.3939C15.6618 20.5011 15.6138 20.6241 15.5959 20.7532L15.3058 22.8188L15.2996 22.8563C15.236 23.1768 15.0638 23.4655 14.8122 23.6739C14.5605 23.8822 14.2447 23.9974 13.918 24H9.45608C9.12533 23.9989 8.80557 23.8812 8.55312 23.6675C8.30067 23.4538 8.13174 23.1579 8.07608 22.8318L8.07139 22.8026L7.78078 20.7329C7.76267 20.6039 7.71465 20.481 7.64054 20.3739C7.56644 20.2668 7.46831 20.1786 7.354 20.1162C7.17556 20.0202 7.0013 19.9184 6.83226 19.8125C6.72095 19.7427 6.59467 19.7003 6.4638 19.6888C6.33292 19.6773 6.20118 19.697 6.07939 19.7463L4.14217 20.5263L4.12391 20.5336C3.81687 20.6489 3.47907 20.6529 3.1694 20.5448C2.85973 20.4367 2.59781 20.2233 2.4293 19.9419C2.42723 19.938 2.42497 19.9341 2.42252 19.9304L0.19417 16.0753C0.025671 15.7905 -0.0359421 15.455 0.0203648 15.1289C0.0766735 14.8028 0.247223 14.5075 0.501474 14.2957ZM7.51782 12.1962C7.55582 13.0041 7.82775 13.7836 8.30055 14.4399C8.77334 15.0962 9.42664 15.6009 10.181 15.8928C10.9353 16.1847 11.7582 16.2511 12.5496 16.0839C13.341 15.9168 14.0668 15.5233 14.6387 14.9513C15.2106 14.3794 15.604 13.6535 15.7711 12.8621C15.9381 12.0707 15.8716 11.2478 15.5796 10.4935C15.2877 9.73919 14.7829 9.08596 14.1265 8.61324C13.4702 8.14052 12.6907 7.86868 11.8827 7.83078C11.3026 7.80524 10.7236 7.90069 10.1825 8.11104C9.6413 8.32139 9.14982 8.64205 8.73929 9.05263C8.32876 9.46321 8.00816 9.95472 7.79788 10.4959C7.58759 11.0371 7.49222 11.6161 7.51782 12.1962Z" fill="#B0BCAB"/>
</svg>
