<svg width="24" height="25" viewBox="0 0 24 25" fill="none" xmlns="http://www.w3.org/2000/svg">
<path d="M12 0.5C5.37321 0.5 0 5.87321 0 12.5C0 19.1268 5.37321 24.5 12 24.5C18.6268 24.5 24 19.1268 24 12.5C24 5.87321 18.6268 0.5 12 0.5ZM12 19.4643C11.408 19.4643 10.9286 18.9848 10.9286 18.3929C10.9286 17.8009 11.408 17.3214 12 17.3214C12.592 17.3214 13.0714 17.8009 13.0714 18.3929C13.0714 18.9848 12.592 19.4643 12 19.4643ZM13.6848 13.5848C13.4422 13.6785 13.2335 13.8431 13.0859 14.0572C12.9382 14.2712 12.8585 14.5248 12.8571 14.7848V15.3929C12.8571 15.5107 12.7607 15.6071 12.6429 15.6071H11.3571C11.2393 15.6071 11.1429 15.5107 11.1429 15.3929V14.817C11.1429 14.1982 11.3223 13.5875 11.6759 13.0786C12.0214 12.5804 12.5036 12.2 13.0714 11.983C13.9821 11.6321 14.5714 10.8688 14.5714 10.0357C14.5714 8.85446 13.417 7.89286 12 7.89286C10.583 7.89286 9.42857 8.85446 9.42857 10.0357V10.2393C9.42857 10.3571 9.33214 10.4536 9.21429 10.4536H7.92857C7.81071 10.4536 7.71429 10.3571 7.71429 10.2393V10.0357C7.71429 8.98304 8.175 8 9.01071 7.26875C9.81429 6.56429 10.875 6.17857 12 6.17857C13.125 6.17857 14.1857 6.56696 14.9893 7.26875C15.825 8 16.2857 8.98304 16.2857 10.0357C16.2857 11.5839 15.2652 12.9768 13.6848 13.5848Z" fill="#FF5964"/>
</svg>
