<svg width="189" height="35" viewBox="0 0 189 35" fill="none" xmlns="http://www.w3.org/2000/svg">
<path d="M51.4034 24.406V9.67782H55.9351C57.2299 9.67782 58.3865 9.97117 59.4048 10.5579C60.4298 11.1378 61.2289 11.9673 61.8021 13.0463C62.3754 14.1185 62.662 15.3391 62.662 16.7081V17.3858C62.662 18.7548 62.3787 19.972 61.8123 21.0375C61.2525 22.103 60.4602 22.9291 59.4351 23.5158C58.4101 24.1025 57.2535 24.3993 55.9655 24.406H51.4034ZM54.4381 12.1359V21.9682H55.9048C57.0917 21.9682 57.9987 21.5804 58.6259 20.8049C59.253 20.0294 59.5734 18.92 59.5868 17.4769V16.698C59.5868 15.2009 59.2766 14.068 58.6562 13.2992C58.0358 12.5237 57.1288 12.1359 55.9351 12.1359H54.4381ZM67.7703 24.406H64.8368V13.461H67.7703V24.406ZM64.6648 10.6287C64.6648 10.1903 64.8098 9.82956 65.0998 9.54632C65.3965 9.26309 65.7978 9.12147 66.3035 9.12147C66.8026 9.12147 67.2005 9.26309 67.4972 9.54632C67.7939 9.82956 67.9423 10.1903 67.9423 10.6287C67.9423 11.0738 67.7905 11.4379 67.4871 11.7212C67.1903 12.0044 66.7958 12.146 66.3035 12.146C65.8113 12.146 65.4134 12.0044 65.1099 11.7212C64.8132 11.4379 64.6648 11.0738 64.6648 10.6287ZM69.7327 18.8526C69.7327 17.1464 70.1137 15.7876 70.8758 14.776C71.6445 13.7645 72.6932 13.2587 74.0217 13.2587C75.0872 13.2587 75.9672 13.6566 76.6618 14.4523V8.86858H79.5953V24.406H76.9552L76.8136 23.2427C76.0853 24.1531 75.1479 24.6083 74.0015 24.6083C72.7134 24.6083 71.6783 24.1025 70.896 23.091C70.1205 22.0727 69.7327 20.6599 69.7327 18.8526ZM72.6561 19.065C72.6561 20.0901 72.8348 20.8757 73.1922 21.4219C73.5496 21.9682 74.0689 22.2413 74.75 22.2413C75.6537 22.2413 76.2909 21.8603 76.6618 21.0982V16.7789C76.2977 16.0169 75.6671 15.6359 74.7702 15.6359C73.3608 15.6359 72.6561 16.7789 72.6561 19.065ZM92.2903 16.3136L95.3553 9.67782H98.6732L93.838 19.065V24.406H90.7527V19.065L85.9175 9.67782H89.2455L92.2903 16.3136ZM98.7035 18.8324C98.7035 17.7466 98.9126 16.7789 99.3307 15.9292C99.7488 15.0795 100.349 14.422 101.131 13.9567C101.92 13.4914 102.834 13.2587 103.873 13.2587C105.349 13.2587 106.553 13.7105 107.484 14.6142C108.421 15.5178 108.944 16.7452 109.052 18.2962L109.072 19.0448C109.072 20.724 108.603 22.0727 107.666 23.091C106.729 24.1025 105.471 24.6083 103.893 24.6083C102.315 24.6083 101.054 24.1025 100.11 23.091C99.1722 22.0794 98.7035 20.7037 98.7035 18.9639V18.8324ZM101.627 19.0448C101.627 20.0833 101.822 20.8791 102.214 21.4321C102.605 21.9783 103.164 22.2514 103.893 22.2514C104.601 22.2514 105.154 21.9817 105.552 21.4422C105.95 20.8959 106.149 20.026 106.149 18.8324C106.149 17.8141 105.95 17.0251 105.552 16.4653C105.154 15.9056 104.594 15.6257 103.873 15.6257C103.158 15.6257 102.605 15.9056 102.214 16.4653C101.822 17.0183 101.627 17.8781 101.627 19.0448ZM117.427 23.2933C116.706 24.17 115.708 24.6083 114.433 24.6083C113.26 24.6083 112.363 24.2711 111.742 23.5968C111.129 22.9224 110.815 21.9345 110.802 20.6329V13.461H113.725V20.5318C113.725 21.6715 114.244 22.2413 115.283 22.2413C116.274 22.2413 116.955 21.8974 117.326 21.2095V13.461H120.26V24.406H117.508L117.427 23.2933ZM182.086 19.8844C182.086 18.9403 182.2 18.1883 182.43 17.6286C182.659 17.0689 183.077 16.5193 183.684 15.9798C184.298 15.4336 184.706 14.9918 184.908 14.6547C185.11 14.3107 185.211 13.9499 185.211 13.5723C185.211 12.4326 184.685 11.8628 183.633 11.8628C183.134 11.8628 182.733 12.0179 182.43 12.3281C182.133 12.6316 181.978 13.053 181.964 13.5925H179.031C179.044 12.3045 179.459 11.2963 180.275 10.568C181.098 9.83967 182.217 9.47551 183.633 9.47551C185.063 9.47551 186.172 9.82281 186.961 10.5174C187.75 11.2053 188.145 12.1797 188.145 13.4408C188.145 14.014 188.017 14.5569 187.761 15.0694C187.504 15.5752 187.056 16.1383 186.415 16.7587L185.596 17.5376C185.083 18.0299 184.79 18.6065 184.716 19.2673L184.675 19.8844H182.086ZM181.792 22.9898C181.792 22.538 181.944 22.1671 182.248 21.8771C182.558 21.5804 182.952 21.4321 183.431 21.4321C183.91 21.4321 184.301 21.5804 184.604 21.8771C184.915 22.1671 185.07 22.538 185.07 22.9898C185.07 23.4349 184.918 23.8025 184.615 24.0924C184.318 24.3824 183.923 24.5274 183.431 24.5274C182.939 24.5274 182.541 24.3824 182.237 24.0924C181.941 23.8025 181.792 23.4349 181.792 22.9898Z" fill="#545454"/>
<path d="M131.781 9.67782L135.564 20.3598L139.327 9.67782H143.313V24.406H140.268V20.38L140.572 13.4307L136.596 24.406H134.512L130.547 13.4408L130.851 20.38V24.406H127.816V9.67782H131.781ZM150.809 24.6083C149.204 24.6083 147.895 24.116 146.884 23.1315C145.879 22.1469 145.377 20.8352 145.377 19.1965V18.9133C145.377 17.8141 145.589 16.8329 146.014 15.9697C146.439 15.0997 147.039 14.4321 147.814 13.9668C148.597 13.4947 149.487 13.2587 150.485 13.2587C151.982 13.2587 153.159 13.7308 154.015 14.6749C154.878 15.619 155.31 16.9576 155.31 18.6907V19.8844H148.34C148.435 20.5992 148.718 21.1724 149.19 21.604C149.669 22.0356 150.272 22.2514 151.001 22.2514C152.127 22.2514 153.007 21.8434 153.641 21.0274L155.077 22.6358C154.639 23.2562 154.046 23.7418 153.297 24.0924C152.548 24.4364 151.719 24.6083 150.809 24.6083ZM150.475 15.6257C149.895 15.6257 149.423 15.8213 149.059 16.2124C148.701 16.6036 148.472 17.1633 148.371 17.8916H152.437V17.659C152.424 17.0116 152.248 16.5125 151.911 16.1619C151.574 15.8045 151.095 15.6257 150.475 15.6257ZM163.321 24.406C163.187 24.143 163.089 23.8159 163.028 23.4248C162.32 24.2138 161.4 24.6083 160.267 24.6083C159.194 24.6083 158.304 24.2981 157.596 23.6777C156.895 23.0573 156.544 22.275 156.544 21.3309C156.544 20.171 156.972 19.2808 157.829 18.6604C158.692 18.04 159.936 17.7264 161.561 17.7197H162.907V17.0925C162.907 16.5867 162.775 16.1821 162.512 15.8786C162.256 15.5752 161.848 15.4234 161.288 15.4234C160.796 15.4234 160.408 15.5415 160.125 15.7775C159.848 16.0135 159.71 16.3372 159.71 16.7486H156.787C156.787 16.1147 156.982 15.528 157.374 14.9885C157.765 14.449 158.318 14.0275 159.032 13.724C159.747 13.4138 160.55 13.2587 161.44 13.2587C162.789 13.2587 163.858 13.5993 164.647 14.2804C165.442 14.9548 165.84 15.9056 165.84 17.133V21.8771C165.847 22.9157 165.992 23.7013 166.275 24.234V24.406H163.321ZM160.904 22.3728C161.335 22.3728 161.733 22.2784 162.097 22.0896C162.462 21.894 162.731 21.6344 162.907 21.3107V19.4292H161.814C160.351 19.4292 159.572 19.935 159.478 20.9465L159.467 21.1185C159.467 21.4826 159.596 21.7827 159.852 22.0188C160.108 22.2548 160.459 22.3728 160.904 22.3728ZM170.777 13.461L170.868 14.7255C171.65 13.7476 172.699 13.2587 174.014 13.2587C175.173 13.2587 176.037 13.5993 176.603 14.2804C177.17 14.9615 177.46 15.9798 177.473 17.3353V24.406H174.55V17.4061C174.55 16.7857 174.415 16.3372 174.145 16.0607C173.875 15.7775 173.427 15.6359 172.8 15.6359C171.977 15.6359 171.36 15.9865 170.949 16.6879V24.406H168.025V13.461H170.777Z" fill="#84DD63"/>
<path fill-rule="evenodd" clip-rule="evenodd" d="M17.7877 24.22C20.5906 24.22 22.2779 22.2537 22.2779 18.993V17.4045C22.2779 14.1461 20.6021 12.1888 17.8315 12.1888C16.1212 12.1888 14.7705 12.974 14.3763 14.2004H14.2311V8.18816H11.2576V24.0662H14.185V22.2763H14.3325C14.8166 23.4801 16.1212 24.2223 17.7877 24.2223V24.22ZM16.7966 21.9007C15.2753 21.9007 14.2311 20.7285 14.2311 19.0043V17.5493C14.2311 15.6825 15.1992 14.5104 16.762 14.5104C18.3386 14.5104 19.2399 15.6825 19.2399 17.7145V18.7328C19.2399 20.7421 18.3501 21.9029 16.7966 21.9029V21.9007ZM3.92772 24.2427C5.69566 24.2427 6.69603 23.4371 7.16856 22.575H7.30455V24.0662H10.1074V16.1894C10.1074 13.2161 7.9246 12.1548 5.24388 12.1548C1.97078 12.1548 0.576251 13.7026 0.437951 15.626H3.24083C3.38835 14.8951 3.9623 14.3769 5.17704 14.3769C6.39177 14.3769 7.16856 14.9403 7.16856 16.1215V17.1714H4.25504C1.48673 17.1714 0 18.5631 0 20.6629C0 22.8737 1.59737 24.2427 3.92772 24.2427ZM4.89583 22.0998C3.88162 22.0998 2.9481 21.568 2.9481 20.4751C2.9481 19.5813 3.56814 18.9274 4.8843 18.9274H7.16856V20.1447C7.16856 21.2829 6.14514 22.0998 4.89583 22.0998ZM25.4034 23.3828C24.0735 22.4777 23.3289 20.9209 23.3289 18.8957V17.4249C23.3289 14.2117 25.3896 12.1345 28.642 12.1345C31.7583 12.1345 33.5263 13.99 33.5724 16.2211H30.8363C30.7441 15.4268 30.184 14.4651 28.7203 14.4651C27.1668 14.4651 26.3116 15.635 26.3116 17.4701V18.8844C26.3116 19.9434 26.5905 20.7715 27.1022 21.2988L25.4034 23.3805V23.3828Z" fill="#545454"/>
<path fill-rule="evenodd" clip-rule="evenodd" d="M32.1246 20.4774C32.3021 20.6167 32.45 20.7889 32.5596 20.9843C32.6693 21.1797 32.7386 21.3944 32.7636 21.6161C32.7887 21.8379 32.769 22.0623 32.7056 22.2765C32.6422 22.4907 32.5364 22.6906 32.3943 22.8646L23.1743 34.1786C23.0223 34.3649 22.8319 34.5175 22.6157 34.6267C22.3995 34.7358 22.1623 34.799 21.9195 34.812C21.6768 34.825 21.4339 34.7876 21.2069 34.7023C20.9799 34.6169 20.7737 34.4855 20.6019 34.3166L14.8394 28.6596C14.6696 28.5043 14.5333 28.3169 14.4388 28.1087C14.3444 27.9006 14.2935 27.6758 14.2895 27.448C14.2854 27.2201 14.3281 26.9938 14.415 26.7824C14.502 26.5711 14.6314 26.3792 14.7955 26.218C14.9597 26.0569 15.1552 25.9298 15.3705 25.8445C15.5857 25.7591 15.8163 25.7172 16.0484 25.7212C16.2806 25.7252 16.5095 25.7751 16.7215 25.8679C16.9336 25.9606 17.1244 26.0944 17.2827 26.2611L21.6807 30.5762L29.6928 20.7421C29.8347 20.5679 30.0102 20.4228 30.2092 20.3151C30.4083 20.2075 30.627 20.1394 30.8528 20.1148C31.0787 20.0902 31.3073 20.1096 31.5255 20.1718C31.7437 20.234 31.9473 20.3379 32.1246 20.4774Z" fill="#84DD63"/>
<rect x="39.7924" width="2.59516" height="34.6021" fill="#84DD63"/>
</svg>
