<svg viewBox="0 0 15 15" fill="none" xmlns="http://www.w3.org/2000/svg">
<path d="M0.309814 7.42481C0.309814 11.2566 3.41609 14.3629 7.24787 14.3629C11.0796 14.3629 14.1859 11.2566 14.1859 7.42481C14.1859 3.59303 11.0796 0.486755 7.24787 0.486755C3.41609 0.486755 0.309814 3.59303 0.309814 7.42481Z" fill="#6001D2"/>
<path fill-rule="evenodd" clip-rule="evenodd" d="M6.68773 5.2567L5.53327 8.04046L4.38872 5.2567H2.47791L4.60779 10.0381L3.84142 11.7611H5.7124L8.5487 5.2567H6.68773Z" fill="#F7F2FF"/>
<path fill-rule="evenodd" clip-rule="evenodd" d="M8.93349 7.80521C8.24652 7.80521 7.73096 8.32171 7.73096 8.92282C7.73096 9.51419 8.2263 10.0026 8.89305 10.0026C9.58033 10.0026 10.0956 9.49559 10.0956 8.88514C10.0956 8.28413 9.60055 7.80521 8.93349 7.80521Z" fill="#F7F2FF"/>
<mask id="mask0" mask-type="alpha" maskUnits="userSpaceOnUse" x="8" y="3" width="5" height="5">
<path d="M8.37781 3.12889H12.3995V7.39203H8.37781V3.12889Z" fill="white"/>
</mask>
<g mask="url(#mask0)">
<path fill-rule="evenodd" clip-rule="evenodd" d="M10.2775 3.12889L8.37781 7.39204H10.4999L12.3995 3.12889H10.2775Z" fill="#F7F2FF"/>
</g>
</svg>
